<mxfile host="drawio-plugin" modified="2024-06-13T10:17:43.175Z" agent="Mozilla/5.0 (Windows NT 10.0; Win64; x64) AppleWebKit/537.36 (KHTML, like Gecko) Chrome/122.0.0.0 Safari/537.36" etag="EG5Zi4FVQNtY7FI8qLs-" version="22.1.22" type="embed">
  <diagram id="23iRSUPoRavnBvh4doch" name="Page-1">
    <mxGraphModel dx="983" dy="833" grid="1" gridSize="10" guides="1" tooltips="1" connect="1" arrows="1" fold="1" page="1" pageScale="1" pageWidth="827" pageHeight="1169" math="0" shadow="0">
      <root>
        <mxCell id="0" />
        <mxCell id="1" parent="0" />
        <mxCell id="18" value="" style="edgeStyle=orthogonalEdgeStyle;rounded=0;orthogonalLoop=1;jettySize=auto;html=1;" parent="1" source="16" target="17" edge="1">
          <mxGeometry relative="1" as="geometry" />
        </mxCell>
        <mxCell id="16" value="&lt;b&gt;Start&lt;/b&gt;" style="rounded=1;whiteSpace=wrap;html=1;" parent="1" vertex="1">
          <mxGeometry x="70.63" y="40" width="120" height="60" as="geometry" />
        </mxCell>
        <mxCell id="83" value="" style="edgeStyle=orthogonalEdgeStyle;rounded=0;orthogonalLoop=1;jettySize=auto;html=1;" edge="1" parent="1" source="17" target="21">
          <mxGeometry relative="1" as="geometry" />
        </mxCell>
        <mxCell id="17" value="The user and computer should each get 2 random cards" style="rounded=1;whiteSpace=wrap;html=1;" parent="1" vertex="1">
          <mxGeometry x="70.63" y="150" width="120" height="60" as="geometry" />
        </mxCell>
        <mxCell id="85" value="" style="edgeStyle=orthogonalEdgeStyle;rounded=0;orthogonalLoop=1;jettySize=auto;html=1;" edge="1" parent="1" source="19" target="31">
          <mxGeometry relative="1" as="geometry" />
        </mxCell>
        <mxCell id="19" value="Add up the user&#39;s and&lt;br/&gt;the computer&#39;s scores" style="rounded=1;whiteSpace=wrap;html=1;" parent="1" vertex="1">
          <mxGeometry x="70.63" y="410" width="120" height="60" as="geometry" />
        </mxCell>
        <mxCell id="81" style="edgeStyle=orthogonalEdgeStyle;rounded=0;orthogonalLoop=1;jettySize=auto;html=1;entryX=0;entryY=0.5;entryDx=0;entryDy=0;" edge="1" parent="1" source="21" target="24">
          <mxGeometry relative="1" as="geometry">
            <Array as="points">
              <mxPoint x="230" y="303" />
              <mxPoint x="230" y="240" />
            </Array>
          </mxGeometry>
        </mxCell>
        <mxCell id="82" style="edgeStyle=orthogonalEdgeStyle;rounded=0;orthogonalLoop=1;jettySize=auto;html=1;" edge="1" parent="1" source="21" target="23">
          <mxGeometry relative="1" as="geometry">
            <Array as="points">
              <mxPoint x="230" y="303" />
              <mxPoint x="230" y="340" />
            </Array>
          </mxGeometry>
        </mxCell>
        <mxCell id="84" value="" style="edgeStyle=orthogonalEdgeStyle;rounded=0;orthogonalLoop=1;jettySize=auto;html=1;" edge="1" parent="1" source="21" target="19">
          <mxGeometry relative="1" as="geometry" />
        </mxCell>
        <mxCell id="21" value="Does the user or&lt;br/&gt;computer have a blackjack?&lt;br/&gt;(ace + 10)" style="rhombus;whiteSpace=wrap;html=1;" parent="1" vertex="1">
          <mxGeometry x="45.63" y="250" width="170" height="106" as="geometry" />
        </mxCell>
        <mxCell id="23" value="Lose" style="rounded=1;whiteSpace=wrap;html=1;" parent="1" vertex="1">
          <mxGeometry x="325.63" y="310" width="120" height="60" as="geometry" />
        </mxCell>
        <mxCell id="24" value="Win" style="rounded=1;whiteSpace=wrap;html=1;" parent="1" vertex="1">
          <mxGeometry x="325.63" y="210" width="120" height="60" as="geometry" />
        </mxCell>
        <mxCell id="29" value="User has black jack" style="text;html=1;align=center;verticalAlign=middle;resizable=0;points=[];autosize=1;strokeColor=none;fillColor=none;" parent="1" vertex="1">
          <mxGeometry x="200" y="200" width="130" height="30" as="geometry" />
        </mxCell>
        <mxCell id="30" value="Computer has black jack&amp;nbsp;" style="text;html=1;align=center;verticalAlign=middle;resizable=0;points=[];autosize=1;strokeColor=none;fillColor=none;" parent="1" vertex="1">
          <mxGeometry x="185" y="348" width="160" height="30" as="geometry" />
        </mxCell>
        <mxCell id="36" value="" style="edgeStyle=orthogonalEdgeStyle;rounded=0;orthogonalLoop=1;jettySize=auto;html=1;" parent="1" source="31" target="35" edge="1">
          <mxGeometry relative="1" as="geometry" />
        </mxCell>
        <mxCell id="47" value="" style="edgeStyle=orthogonalEdgeStyle;rounded=0;orthogonalLoop=1;jettySize=auto;html=1;" parent="1" source="31" target="46" edge="1">
          <mxGeometry relative="1" as="geometry" />
        </mxCell>
        <mxCell id="31" value="Is user&#39;s score&amp;nbsp;over 21?" style="rhombus;whiteSpace=wrap;html=1;" parent="1" vertex="1">
          <mxGeometry x="51.63" y="540" width="158" height="90" as="geometry" />
        </mxCell>
        <mxCell id="33" value="Yes" style="text;html=1;align=center;verticalAlign=middle;resizable=0;points=[];autosize=1;strokeColor=none;fillColor=none;" parent="1" vertex="1">
          <mxGeometry x="181.25" y="260" width="40" height="30" as="geometry" />
        </mxCell>
        <mxCell id="34" value="No" style="text;html=1;align=center;verticalAlign=middle;resizable=0;points=[];autosize=1;strokeColor=none;fillColor=none;" parent="1" vertex="1">
          <mxGeometry x="80" y="370" width="40" height="30" as="geometry" />
        </mxCell>
        <mxCell id="38" value="" style="edgeStyle=orthogonalEdgeStyle;rounded=0;orthogonalLoop=1;jettySize=auto;html=1;" parent="1" source="35" target="37" edge="1">
          <mxGeometry relative="1" as="geometry" />
        </mxCell>
        <mxCell id="40" style="edgeStyle=orthogonalEdgeStyle;rounded=0;orthogonalLoop=1;jettySize=auto;html=1;entryX=0.5;entryY=1;entryDx=0;entryDy=0;" parent="1" source="35" target="23" edge="1">
          <mxGeometry relative="1" as="geometry">
            <Array as="points">
              <mxPoint x="325.63" y="500" />
              <mxPoint x="390.63" y="500" />
            </Array>
          </mxGeometry>
        </mxCell>
        <mxCell id="35" value="Do they have an&lt;br/&gt;&quot;Ace&quot;?&amp;nbsp;" style="rhombus;whiteSpace=wrap;html=1;" parent="1" vertex="1">
          <mxGeometry x="260.63" y="537.5" width="130" height="95" as="geometry" />
        </mxCell>
        <mxCell id="43" style="edgeStyle=orthogonalEdgeStyle;rounded=0;orthogonalLoop=1;jettySize=auto;html=1;" parent="1" source="37" target="23" edge="1">
          <mxGeometry relative="1" as="geometry">
            <Array as="points">
              <mxPoint x="532.63" y="500" />
              <mxPoint x="390.63" y="500" />
            </Array>
          </mxGeometry>
        </mxCell>
        <mxCell id="49" style="edgeStyle=orthogonalEdgeStyle;rounded=0;orthogonalLoop=1;jettySize=auto;html=1;entryX=1;entryY=0;entryDx=0;entryDy=0;" parent="1" source="37" target="46" edge="1">
          <mxGeometry relative="1" as="geometry">
            <Array as="points">
              <mxPoint x="533.63" y="670" />
              <mxPoint x="175.63" y="670" />
            </Array>
          </mxGeometry>
        </mxCell>
        <mxCell id="37" value="If the ace counts&lt;br/&gt;as a 1 instead of 11, are they&lt;br/&gt;still over 21?" style="rhombus;whiteSpace=wrap;html=1;" parent="1" vertex="1">
          <mxGeometry x="440.63" y="540" width="185" height="90" as="geometry" />
        </mxCell>
        <mxCell id="41" value="Yes" style="text;html=1;align=center;verticalAlign=middle;resizable=0;points=[];autosize=1;strokeColor=none;fillColor=none;" parent="1" vertex="1">
          <mxGeometry x="205.63" y="548" width="40" height="30" as="geometry" />
        </mxCell>
        <mxCell id="42" value="No" style="text;html=1;align=center;verticalAlign=middle;resizable=0;points=[];autosize=1;strokeColor=none;fillColor=none;" parent="1" vertex="1">
          <mxGeometry x="325.63" y="508" width="40" height="30" as="geometry" />
        </mxCell>
        <mxCell id="44" value="Yes" style="text;html=1;align=center;verticalAlign=middle;resizable=0;points=[];autosize=1;strokeColor=none;fillColor=none;" parent="1" vertex="1">
          <mxGeometry x="475.63" y="478" width="40" height="30" as="geometry" />
        </mxCell>
        <mxCell id="45" value="Yes" style="text;html=1;align=center;verticalAlign=middle;resizable=0;points=[];autosize=1;strokeColor=none;fillColor=none;" parent="1" vertex="1">
          <mxGeometry x="395.63" y="558" width="40" height="30" as="geometry" />
        </mxCell>
        <mxCell id="52" style="edgeStyle=orthogonalEdgeStyle;rounded=0;orthogonalLoop=1;jettySize=auto;html=1;entryX=0;entryY=0.5;entryDx=0;entryDy=0;" parent="1" source="46" target="51" edge="1">
          <mxGeometry relative="1" as="geometry" />
        </mxCell>
        <mxCell id="56" value="" style="edgeStyle=orthogonalEdgeStyle;rounded=0;orthogonalLoop=1;jettySize=auto;html=1;" parent="1" source="46" target="55" edge="1">
          <mxGeometry relative="1" as="geometry" />
        </mxCell>
        <mxCell id="46" value="Ask the user if they want&lt;br/&gt;to get another card" style="rhombus;whiteSpace=wrap;html=1;" parent="1" vertex="1">
          <mxGeometry x="40.00000000000001" y="690" width="181.25" height="90" as="geometry" />
        </mxCell>
        <mxCell id="48" value="No" style="text;html=1;align=center;verticalAlign=middle;resizable=0;points=[];autosize=1;strokeColor=none;fillColor=none;" parent="1" vertex="1">
          <mxGeometry x="125.63" y="628" width="40" height="30" as="geometry" />
        </mxCell>
        <mxCell id="50" value="No" style="text;html=1;align=center;verticalAlign=middle;resizable=0;points=[];autosize=1;strokeColor=none;fillColor=none;" parent="1" vertex="1">
          <mxGeometry x="535.63" y="632.5" width="40" height="30" as="geometry" />
        </mxCell>
        <mxCell id="86" style="edgeStyle=orthogonalEdgeStyle;rounded=0;orthogonalLoop=1;jettySize=auto;html=1;entryX=1;entryY=0.5;entryDx=0;entryDy=0;" edge="1" parent="1" source="51" target="19">
          <mxGeometry relative="1" as="geometry">
            <Array as="points">
              <mxPoint x="720" y="735" />
              <mxPoint x="720" y="440" />
            </Array>
          </mxGeometry>
        </mxCell>
        <mxCell id="51" value="Draw another card&amp;nbsp;" style="rounded=1;whiteSpace=wrap;html=1;" parent="1" vertex="1">
          <mxGeometry x="365.63" y="705" width="120" height="60" as="geometry" />
        </mxCell>
        <mxCell id="53" value="Yes" style="text;html=1;align=center;verticalAlign=middle;resizable=0;points=[];autosize=1;strokeColor=none;fillColor=none;" parent="1" vertex="1">
          <mxGeometry x="255.63" y="708" width="40" height="30" as="geometry" />
        </mxCell>
        <mxCell id="67" value="" style="edgeStyle=orthogonalEdgeStyle;rounded=0;orthogonalLoop=1;jettySize=auto;html=1;" parent="1" source="55" target="58" edge="1">
          <mxGeometry relative="1" as="geometry" />
        </mxCell>
        <mxCell id="55" value="Computer plays, if score is less than 17, keep drawing cards." style="rounded=1;whiteSpace=wrap;html=1;" parent="1" vertex="1">
          <mxGeometry x="70.63" y="840" width="120" height="60" as="geometry" />
        </mxCell>
        <mxCell id="57" value="No" style="text;html=1;align=center;verticalAlign=middle;resizable=0;points=[];autosize=1;strokeColor=none;fillColor=none;" parent="1" vertex="1">
          <mxGeometry x="135.63" y="788" width="40" height="30" as="geometry" />
        </mxCell>
        <mxCell id="61" value="" style="edgeStyle=orthogonalEdgeStyle;rounded=0;orthogonalLoop=1;jettySize=auto;html=1;" parent="1" source="58" target="60" edge="1">
          <mxGeometry relative="1" as="geometry" />
        </mxCell>
        <mxCell id="68" value="" style="edgeStyle=orthogonalEdgeStyle;rounded=0;orthogonalLoop=1;jettySize=auto;html=1;" parent="1" source="58" target="64" edge="1">
          <mxGeometry relative="1" as="geometry" />
        </mxCell>
        <mxCell id="58" value="Has computer gone&amp;nbsp;&lt;br/&gt;over 21?&amp;nbsp;" style="rhombus;whiteSpace=wrap;html=1;" parent="1" vertex="1">
          <mxGeometry x="226.25" y="820" width="154.38" height="100" as="geometry" />
        </mxCell>
        <mxCell id="60" value="Win" style="rounded=1;whiteSpace=wrap;html=1;" parent="1" vertex="1">
          <mxGeometry x="243.44" y="988" width="120" height="60" as="geometry" />
        </mxCell>
        <mxCell id="62" value="Yes" style="text;html=1;align=center;verticalAlign=middle;resizable=0;points=[];autosize=1;strokeColor=none;fillColor=none;" parent="1" vertex="1">
          <mxGeometry x="305.63" y="940" width="40" height="30" as="geometry" />
        </mxCell>
        <mxCell id="70" value="" style="edgeStyle=orthogonalEdgeStyle;rounded=0;orthogonalLoop=1;jettySize=auto;html=1;" parent="1" source="64" target="60" edge="1">
          <mxGeometry relative="1" as="geometry" />
        </mxCell>
        <mxCell id="74" value="" style="edgeStyle=orthogonalEdgeStyle;rounded=0;orthogonalLoop=1;jettySize=auto;html=1;" parent="1" source="64" target="73" edge="1">
          <mxGeometry relative="1" as="geometry" />
        </mxCell>
        <mxCell id="77" value="" style="edgeStyle=orthogonalEdgeStyle;rounded=0;orthogonalLoop=1;jettySize=auto;html=1;" parent="1" source="64" target="76" edge="1">
          <mxGeometry relative="1" as="geometry" />
        </mxCell>
        <mxCell id="64" value="Compare user score with&lt;br/&gt;computer score to see if user&lt;br/&gt;score is higher?&amp;nbsp;" style="rhombus;whiteSpace=wrap;html=1;" parent="1" vertex="1">
          <mxGeometry x="450.63" y="963" width="229.06" height="110" as="geometry" />
        </mxCell>
        <mxCell id="69" value="No" style="text;html=1;align=center;verticalAlign=middle;resizable=0;points=[];autosize=1;strokeColor=none;fillColor=none;" parent="1" vertex="1">
          <mxGeometry x="380" y="828" width="40" height="30" as="geometry" />
        </mxCell>
        <mxCell id="71" value="Score of User" style="text;html=1;align=center;verticalAlign=middle;resizable=0;points=[];autosize=1;strokeColor=none;fillColor=none;" parent="1" vertex="1">
          <mxGeometry x="363" y="978" width="100" height="30" as="geometry" />
        </mxCell>
        <mxCell id="72" value="higher" style="text;html=1;align=center;verticalAlign=middle;resizable=0;points=[];autosize=1;strokeColor=none;fillColor=none;" parent="1" vertex="1">
          <mxGeometry x="380" y="1030" width="60" height="30" as="geometry" />
        </mxCell>
        <mxCell id="73" value="Draw" style="rounded=1;whiteSpace=wrap;html=1;" parent="1" vertex="1">
          <mxGeometry x="505.15999999999997" y="1100" width="120" height="60" as="geometry" />
        </mxCell>
        <mxCell id="75" value="Same score" style="text;html=1;align=center;verticalAlign=middle;resizable=0;points=[];autosize=1;strokeColor=none;fillColor=none;" parent="1" vertex="1">
          <mxGeometry x="555" y="1068" width="90" height="30" as="geometry" />
        </mxCell>
        <mxCell id="76" value="Lose" style="rounded=1;whiteSpace=wrap;html=1;" parent="1" vertex="1">
          <mxGeometry x="717" y="890" width="110" height="52" as="geometry" />
        </mxCell>
        <mxCell id="78" value="Score of User" style="text;html=1;align=center;verticalAlign=middle;resizable=0;points=[];autosize=1;strokeColor=none;fillColor=none;" parent="1" vertex="1">
          <mxGeometry x="680" y="978" width="100" height="30" as="geometry" />
        </mxCell>
        <mxCell id="79" value="lower" style="text;html=1;align=center;verticalAlign=middle;resizable=0;points=[];autosize=1;strokeColor=none;fillColor=none;" parent="1" vertex="1">
          <mxGeometry x="705" y="1018" width="50" height="30" as="geometry" />
        </mxCell>
      </root>
    </mxGraphModel>
  </diagram>
</mxfile>
